<svg xmlns="http://www.w3.org/2000/svg" viewBox="0 0 320 80"><g transform="translate(2 0) scale(.78)"><path d="M50 5C28 5 12 20 12 41c0 28 38 54 38 54s38-26 38-54C88 20 72 5 50 5Z" fill="#00B8A9"/><path d="M31 35c4-16 17-17 19-10 2-7 15-6 19 10 2 9-4 29-10 37-3 4-6 1-6-4l-1-10c0-4-4-4-4 0l-1 10c0 5-3 8-6 4-6-8-12-28-10-37Z" fill="white"/><circle cx="50" cy="42" r="5" fill="#0F2942"/></g><text x="86" y="43" fill="#fff" font-family="Arial,sans-serif" font-size="31" font-weight="700">Tooth<tspan fill="#00B8A9">Scout</tspan></text><text x="87" y="62" fill="#99B3C3" font-family="Arial,sans-serif" font-size="9" letter-spacing="2">DENTAL NURSE COVER</text></svg>
